<?xml version="1.0" encoding="UTF-8" standalone="no"?>
<svg xmlns:dc="http://purl.org/dc/elements/1.1/" xmlns:cc="http://creativecommons.org/ns#" xmlns:rdf="http://www.w3.org/1999/02/22-rdf-syntax-ns#" xmlns:svg="http://www.w3.org/2000/svg" xmlns="http://www.w3.org/2000/svg" xmlns:sodipodi="http://sodipodi.sourceforge.net/DTD/sodipodi-0.dtd" xmlns:inkscape="http://www.inkscape.org/namespaces/inkscape" version="1.1" id="svg2" xml:space="preserve" width="566.20972" height="180.19963" viewBox="0 0 566.20972 180.19963" sodipodi:docname="MQV_Logo_Blue_noborder.svg" inkscape:version="0.92.3 (2405546, 2018-03-11)"><metadata id="metadata8"><rdf:RDF><cc:Work rdf:about=""><dc:format>image/svg+xml</dc:format><dc:type rdf:resource="http://purl.org/dc/dcmitype/StillImage"/><dc:title/></cc:Work></rdf:RDF></metadata><defs id="defs6"><clipPath clipPathUnits="userSpaceOnUse" id="clipPath22"><path d="M 0,204.046 H 508.137 V 0 H 0 Z" id="path20" inkscape:connector-curvature="0"/></clipPath></defs><sodipodi:namedview pagecolor="#ffffff" bordercolor="#666666" borderopacity="1" objecttolerance="10" gridtolerance="10" guidetolerance="10" inkscape:pageopacity="0" inkscape:pageshadow="2" inkscape:window-width="950" inkscape:window-height="480" id="namedview4" showgrid="false" fit-margin-top="0" fit-margin-left="0" fit-margin-right="0" fit-margin-bottom="0" inkscape:zoom="0.65238313" inkscape:cx="285.71426" inkscape:cy="97.379994" inkscape:window-x="51" inkscape:window-y="0" inkscape:window-maximized="0" inkscape:current-layer="g10"/><g id="g10" inkscape:groupmode="layer" inkscape:label="MQV_Logo_Blue_CMYK" transform="matrix(1.3333333,0,0,-1.3333333,-53.043732,218.85029)"><g id="g12" transform="translate(84.5566,163.6477)"><path d="m 0,0 h 8.865 l 8.28,-22.635 H 17.28 L 25.47,0 h 8.91 v -31.86 h -5.625 v 25.605 h -0.09 L 18.99,-31.86 H 15.03 L 5.49,-6.255 H 5.4 V -31.86 H 0 Z" style="fill:#1a8ab9;fill-opacity:1;fill-rule:nonzero;stroke:none" id="path14" inkscape:connector-curvature="0"/></g><g id="g16"><g id="g18" clip-path="url(#clipPath22)"><g id="g24" transform="translate(145.3969,131.7879)"><path d="M 0,0 H -5.13 V 3.465 H -5.22 C -5.7,2.385 -6.533,1.432 -7.718,0.607 c -1.185,-0.824 -2.587,-1.237 -4.207,-1.237 -1.41,0 -2.618,0.248 -3.623,0.742 -1.005,0.495 -1.83,1.148 -2.474,1.958 -0.646,0.81 -1.119,1.74 -1.418,2.79 -0.3,1.05 -0.45,2.13 -0.45,3.24 v 13.5 h 5.4 V 9.63 c 0,-0.63 0.045,-1.29 0.135,-1.98 0.09,-0.691 0.285,-1.313 0.585,-1.867 0.299,-0.556 0.712,-1.013 1.237,-1.373 0.525,-0.36 1.222,-0.54 2.093,-0.54 0.839,0 1.582,0.172 2.227,0.518 0.645,0.344 1.171,0.787 1.575,1.327 0.405,0.54 0.713,1.162 0.923,1.868 C -5.506,8.287 -5.4,9 -5.4,9.72 V 21.6 H 0 Z" style="fill:#1a8ab9;fill-opacity:1;fill-rule:nonzero;stroke:none" id="path26" inkscape:connector-curvature="0"/></g><g id="g28" transform="translate(151.8764,153.388)"><path d="m 0,0 h 5.13 v -3.465 h 0.09 c 0.479,1.08 1.312,2.032 2.497,2.858 1.185,0.824 2.588,1.237 4.208,1.237 1.409,0 2.617,-0.248 3.622,-0.743 1.005,-0.494 1.83,-1.147 2.475,-1.957 0.645,-0.81 1.118,-1.741 1.418,-2.79 0.299,-1.051 0.45,-2.131 0.45,-3.24 v -13.5 h -5.4 v 11.97 c 0,0.63 -0.045,1.29 -0.135,1.98 -0.09,0.69 -0.286,1.312 -0.585,1.867 -0.3,0.555 -0.713,1.013 -1.238,1.373 -0.525,0.36 -1.222,0.54 -2.092,0.54 -0.871,0 -1.62,-0.173 -2.25,-0.518 C 7.56,-4.733 7.042,-5.175 6.637,-5.715 6.232,-6.255 5.924,-6.878 5.715,-7.583 5.504,-8.288 5.4,-9 5.4,-9.72 V -21.6 H 0 Z" style="fill:#1a8ab9;fill-opacity:1;fill-rule:nonzero;stroke:none" id="path30" inkscape:connector-curvature="0"/></g><path d="m 178.156,153.388 h 5.4 v -21.6 h -5.4 z m -0.765,7.335 c 0,0.87 0.322,1.627 0.967,2.272 0.645,0.645 1.463,0.968 2.453,0.968 0.99,0 1.822,-0.308 2.497,-0.923 0.675,-0.615 1.013,-1.387 1.013,-2.317 0,-0.93 -0.338,-1.703 -1.013,-2.317 -0.675,-0.616 -1.507,-0.923 -2.497,-0.923 -0.99,0 -1.808,0.322 -2.453,0.967 -0.645,0.645 -0.967,1.402 -0.967,2.273" style="fill:#1a8ab9;fill-opacity:1;fill-rule:nonzero;stroke:none" id="path32" inkscape:connector-curvature="0"/><g id="g34" transform="translate(204.8852,147.4031)"><path d="m 0,0 c -0.42,0.6 -1.05,1.102 -1.89,1.507 -0.84,0.405 -1.695,0.608 -2.565,0.608 -0.989,0 -1.86,-0.203 -2.609,-0.608 -0.751,-0.405 -1.374,-0.938 -1.869,-1.597 -0.495,-0.66 -0.862,-1.403 -1.102,-2.228 -0.24,-0.825 -0.36,-1.658 -0.36,-2.497 0,-0.84 0.127,-1.673 0.382,-2.497 0.255,-0.826 0.638,-1.569 1.148,-2.228 0.51,-0.661 1.148,-1.193 1.913,-1.598 0.765,-0.405 1.657,-0.607 2.678,-0.607 0.838,0 1.679,0.164 2.519,0.495 0.84,0.33 1.515,0.81 2.026,1.44 l 3.375,-3.42 c -0.901,-0.961 -2.048,-1.703 -3.443,-2.228 -1.395,-0.524 -2.903,-0.787 -4.522,-0.787 -1.591,0 -3.099,0.255 -4.523,0.765 -1.426,0.509 -2.671,1.26 -3.735,2.25 -1.066,0.99 -1.906,2.189 -2.521,3.6 -0.615,1.409 -0.922,3.015 -0.922,4.815 0,1.739 0.307,3.315 0.922,4.725 0.615,1.409 1.448,2.61 2.498,3.6 1.05,0.99 2.273,1.755 3.667,2.295 1.396,0.54 2.888,0.81 4.478,0.81 1.59,0 3.128,-0.301 4.613,-0.9 C 1.643,5.114 2.819,4.29 3.69,3.24 Z" style="fill:#1a8ab9;fill-opacity:1;fill-rule:nonzero;stroke:none" id="path36" inkscape:connector-curvature="0"/></g><g id="g38" transform="translate(56.8378,113.3728)"><path d="m 0,0 c -1.53,0 -2.963,-0.286 -4.298,-0.855 -1.335,-0.57 -2.482,-1.35 -3.442,-2.34 -0.961,-0.99 -1.718,-2.176 -2.273,-3.555 -0.555,-1.38 -0.832,-2.88 -0.832,-4.5 0,-1.71 0.262,-3.263 0.787,-4.657 0.525,-1.395 1.26,-2.588 2.205,-3.578 0.945,-0.99 2.077,-1.763 3.398,-2.317 1.32,-0.556 2.774,-0.833 4.365,-0.833 1.559,0 3.007,0.277 4.342,0.833 1.335,0.554 2.482,1.327 3.443,2.317 0.96,0.99 1.71,2.183 2.25,3.578 0.54,1.394 0.81,2.947 0.81,4.657 0,1.62 -0.255,3.12 -0.765,4.5 -0.51,1.379 -1.238,2.565 -2.183,3.555 -0.945,0.99 -2.078,1.77 -3.397,2.34 C 3.089,-0.286 1.62,0 0,0 M 19.125,-27.585 H -0.09 c -2.551,0 -4.868,0.367 -6.952,1.102 -2.086,0.735 -3.871,1.8 -5.356,3.195 -1.485,1.395 -2.632,3.105 -3.442,5.131 -0.81,2.025 -1.215,4.326 -1.215,6.907 0,2.43 0.427,4.642 1.282,6.638 0.856,1.994 2.048,3.712 3.578,5.152 1.53,1.44 3.337,2.557 5.422,3.353 2.085,0.794 4.343,1.192 6.773,1.192 2.43,0 4.68,-0.398 6.75,-1.192 2.07,-0.796 3.862,-1.913 5.377,-3.353 1.515,-1.44 2.692,-3.158 3.533,-5.152 0.84,-1.996 1.26,-4.208 1.26,-6.638 0,-1.44 -0.166,-2.76 -0.495,-3.96 -0.331,-1.2 -0.758,-2.288 -1.283,-3.263 -0.525,-0.975 -1.125,-1.83 -1.8,-2.565 -0.675,-0.735 -1.372,-1.357 -2.092,-1.867 v -0.091 h 7.875 z" style="fill:#1a8ab9;fill-opacity:1;fill-rule:nonzero;stroke:none" id="path40" inkscape:connector-curvature="0"/></g><g id="g42" transform="translate(99.4072,85.7874)"><path d="M 0,0 H -5.13 V 3.465 H -5.22 C -5.7,2.385 -6.533,1.433 -7.718,0.607 c -1.185,-0.824 -2.587,-1.237 -4.207,-1.237 -1.41,0 -2.618,0.248 -3.623,0.742 -1.005,0.495 -1.83,1.148 -2.474,1.958 -0.646,0.81 -1.119,1.74 -1.418,2.79 -0.3,1.05 -0.45,2.13 -0.45,3.241 v 13.5 h 5.4 V 9.63 c 0,-0.63 0.045,-1.29 0.135,-1.98 0.09,-0.69 0.285,-1.312 0.585,-1.867 0.299,-0.555 0.712,-1.012 1.237,-1.373 0.525,-0.36 1.222,-0.54 2.093,-0.54 0.839,0 1.582,0.173 2.227,0.518 0.645,0.344 1.171,0.787 1.575,1.327 0.405,0.54 0.713,1.163 0.923,1.868 C -5.506,8.288 -5.4,9 -5.4,9.721 v 11.88 H 0 Z" style="fill:#1a8ab9;fill-opacity:1;fill-rule:nonzero;stroke:none" id="path44" inkscape:connector-curvature="0"/></g><g id="g46" transform="translate(119.2065,95.6428)"><path d="M 0,0 H -1.215 C -2.085,0 -3,-0.038 -3.96,-0.112 -4.92,-0.187 -5.805,-0.353 -6.615,-0.607 -7.425,-0.863 -8.1,-1.223 -8.64,-1.687 -9.18,-2.153 -9.45,-2.79 -9.45,-3.6 c 0,-0.51 0.113,-0.938 0.337,-1.283 0.225,-0.345 0.518,-0.623 0.878,-0.832 0.36,-0.211 0.765,-0.36 1.215,-0.45 0.45,-0.09 0.9,-0.135 1.35,-0.135 1.86,0 3.27,0.494 4.23,1.485 0.96,0.99 1.44,2.34 1.44,4.05 z m 0.09,-7.11 h -0.135 c -0.54,-0.96 -1.411,-1.748 -2.61,-2.363 -1.2,-0.614 -2.565,-0.923 -4.095,-0.923 -0.871,0 -1.777,0.113 -2.723,0.338 -0.944,0.225 -1.815,0.6 -2.61,1.125 -0.795,0.525 -1.455,1.215 -1.98,2.071 -0.525,0.854 -0.787,1.912 -0.787,3.172 0,1.62 0.457,2.91 1.372,3.87 0.915,0.96 2.093,1.695 3.533,2.205 1.44,0.51 3.037,0.847 4.793,1.012 1.755,0.165 3.471,0.248 5.152,0.248 v 0.54 c 0,1.35 -0.488,2.347 -1.462,2.993 -0.976,0.644 -2.138,0.967 -3.488,0.967 -1.14,0 -2.235,-0.24 -3.285,-0.72 -1.051,-0.48 -1.92,-1.065 -2.61,-1.755 l -2.79,3.285 c 1.23,1.14 2.647,1.995 4.253,2.565 1.604,0.569 3.232,0.855 4.882,0.855 1.919,0 3.502,-0.27 4.748,-0.81 C 1.492,11.025 2.475,10.32 3.195,9.45 3.915,8.58 4.417,7.605 4.703,6.525 4.987,5.445 5.13,4.365 5.13,3.285 V -9.855 H 0.09 Z" style="fill:#1a8ab9;fill-opacity:1;fill-rule:nonzero;stroke:none" id="path48" inkscape:connector-curvature="0"/></g><g id="g50" transform="translate(130.6362,107.388)"><path d="m 0,0 h 5.13 v -3.465 h 0.09 c 0.479,1.08 1.312,2.032 2.497,2.858 1.185,0.824 2.588,1.237 4.208,1.237 1.409,0 2.617,-0.248 3.622,-0.743 1.005,-0.494 1.83,-1.147 2.475,-1.957 0.645,-0.81 1.118,-1.741 1.418,-2.79 0.299,-1.051 0.45,-2.131 0.45,-3.24 v -13.501 h -5.4 V -9.63 c 0,0.63 -0.045,1.29 -0.135,1.98 -0.09,0.69 -0.286,1.312 -0.585,1.867 -0.3,0.555 -0.713,1.013 -1.238,1.373 -0.525,0.36 -1.222,0.54 -2.092,0.54 -0.871,0 -1.62,-0.173 -2.25,-0.518 C 7.56,-4.733 7.042,-5.175 6.637,-5.715 6.232,-6.255 5.924,-6.878 5.715,-7.583 5.504,-8.288 5.4,-9 5.4,-9.72 V -21.601 H 0 Z" style="fill:#1a8ab9;fill-opacity:1;fill-rule:nonzero;stroke:none" id="path52" inkscape:connector-curvature="0"/></g><g id="g54" transform="translate(191.8354,85.7874)"><path d="M 0,0 H -5.13 V 3.465 H -5.22 C -5.7,2.385 -6.533,1.433 -7.718,0.607 c -1.185,-0.824 -2.587,-1.237 -4.207,-1.237 -1.41,0 -2.618,0.248 -3.623,0.742 -1.005,0.495 -1.83,1.148 -2.474,1.958 -0.646,0.81 -1.119,1.74 -1.418,2.79 -0.3,1.05 -0.45,2.13 -0.45,3.241 v 13.5 h 5.4 V 9.63 c 0,-0.63 0.045,-1.29 0.135,-1.98 0.09,-0.69 0.285,-1.312 0.585,-1.867 0.299,-0.555 0.712,-1.012 1.237,-1.373 0.525,-0.36 1.222,-0.54 2.093,-0.54 0.839,0 1.582,0.173 2.227,0.518 0.645,0.344 1.171,0.787 1.575,1.327 0.405,0.54 0.713,1.163 0.923,1.868 C -5.506,8.288 -5.4,9 -5.4,9.721 v 11.88 H 0 Z" style="fill:#1a8ab9;fill-opacity:1;fill-rule:nonzero;stroke:none" id="path56" inkscape:connector-curvature="0"/></g><g id="g58" transform="translate(224.1001,108.0178)"><path d="m 0,0 c 1.409,0 2.617,-0.248 3.622,-0.743 1.005,-0.494 1.83,-1.147 2.476,-1.957 0.644,-0.81 1.117,-1.74 1.417,-2.79 0.299,-1.051 0.45,-2.131 0.45,-3.24 v -13.5 H 2.564 v 11.97 c 0,0.63 -0.044,1.29 -0.134,1.98 -0.09,0.69 -0.285,1.312 -0.585,1.867 -0.3,0.555 -0.713,1.013 -1.238,1.373 -0.525,0.36 -1.222,0.54 -2.092,0.54 -0.84,0 -1.56,-0.18 -2.161,-0.54 -0.6,-0.36 -1.094,-0.825 -1.484,-1.395 -0.391,-0.57 -0.675,-1.208 -0.855,-1.913 -0.18,-0.705 -0.27,-1.402 -0.27,-2.092 v -11.79 h -5.4 v 13.05 c 0,1.35 -0.323,2.467 -0.968,3.352 -0.646,0.885 -1.657,1.328 -3.037,1.328 -0.81,0 -1.516,-0.173 -2.115,-0.518 -0.601,-0.345 -1.088,-0.787 -1.462,-1.327 -0.376,-0.54 -0.66,-1.163 -0.856,-1.867 -0.195,-0.705 -0.292,-1.418 -0.292,-2.138 v -11.88 h -5.4 v 21.6 h 5.13 v -3.465 h 0.09 c 0.24,0.54 0.562,1.05 0.967,1.53 0.406,0.48 0.885,0.915 1.441,1.305 0.554,0.389 1.192,0.698 1.912,0.923 0.72,0.225 1.515,0.337 2.385,0.337 1.679,0 3.075,-0.375 4.185,-1.125 1.11,-0.75 1.964,-1.74 2.565,-2.97 0.719,1.32 1.679,2.332 2.88,3.037 C -3.03,-0.353 -1.62,0 0,0" style="fill:#1a8ab9;fill-opacity:1;fill-rule:nonzero;stroke:none" id="path60" inkscape:connector-curvature="0"/></g><g id="g62" transform="translate(109.3965,71.6477)"><path d="M 0,0 H 6.345 L 15.12,-24.525 H 15.3 L 24.165,0 h 6.12 L 17.505,-31.86 H 12.6 Z" style="fill:#1a8ab9;fill-opacity:1;fill-rule:nonzero;stroke:none" id="path64" inkscape:connector-curvature="0"/></g><g id="g66" transform="translate(153.9018,49.6428)"><path d="M 0,0 H -1.215 C -2.085,0 -3,-0.038 -3.96,-0.112 -4.92,-0.187 -5.805,-0.354 -6.615,-0.607 -7.425,-0.863 -8.1,-1.223 -8.64,-1.687 -9.18,-2.153 -9.45,-2.79 -9.45,-3.601 c 0,-0.509 0.113,-0.937 0.337,-1.282 0.225,-0.345 0.518,-0.623 0.878,-0.832 0.36,-0.211 0.765,-0.36 1.215,-0.45 0.45,-0.09 0.9,-0.135 1.35,-0.135 1.86,0 3.27,0.494 4.23,1.485 0.96,0.99 1.44,2.339 1.44,4.049 z m 0.09,-7.11 h -0.135 c -0.54,-0.96 -1.411,-1.748 -2.61,-2.363 -1.2,-0.614 -2.565,-0.923 -4.095,-0.923 -0.871,0 -1.777,0.113 -2.723,0.338 -0.944,0.225 -1.815,0.6 -2.61,1.125 -0.795,0.525 -1.455,1.215 -1.98,2.071 -0.525,0.854 -0.787,1.912 -0.787,3.172 0,1.62 0.457,2.91 1.372,3.87 0.915,0.96 2.093,1.694 3.533,2.205 1.44,0.51 3.037,0.847 4.793,1.012 1.755,0.165 3.471,0.248 5.152,0.248 v 0.54 c 0,1.35 -0.488,2.347 -1.462,2.993 -0.976,0.644 -2.138,0.967 -3.488,0.967 -1.14,0 -2.235,-0.241 -3.285,-0.72 -1.051,-0.481 -1.92,-1.066 -2.61,-1.755 l -2.79,3.285 c 1.23,1.14 2.647,1.994 4.253,2.565 1.604,0.569 3.232,0.855 4.882,0.855 1.919,0 3.502,-0.271 4.748,-0.811 C 1.492,11.024 2.475,10.319 3.195,9.45 3.915,8.579 4.417,7.604 4.703,6.524 4.987,5.444 5.13,4.365 5.13,3.285 V -9.855 H 0.09 Z" style="fill:#1a8ab9;fill-opacity:1;fill-rule:nonzero;stroke:none" id="path68" inkscape:connector-curvature="0"/></g><g id="g70" transform="translate(204.6606,52.7473)"><path d="m 0,0 c 0,0.69 -0.098,1.351 -0.292,1.98 -0.196,0.63 -0.503,1.185 -0.923,1.666 -0.421,0.479 -0.953,0.861 -1.598,1.147 -0.645,0.284 -1.402,0.428 -2.272,0.428 -1.62,0 -2.992,-0.489 -4.117,-1.463 C -10.327,2.782 -10.95,1.53 -11.07,0 Z M 5.4,-2.43 V -3.149 C 5.4,-3.391 5.385,-3.63 5.355,-3.87 H -11.07 c 0.06,-0.78 0.262,-1.492 0.607,-2.137 0.345,-0.645 0.803,-1.2 1.373,-1.665 0.569,-0.466 1.215,-0.833 1.935,-1.102 0.72,-0.271 1.469,-0.406 2.25,-0.406 1.35,0 2.49,0.247 3.42,0.742 0.929,0.496 1.695,1.178 2.295,2.048 l 3.6,-2.88 c -2.131,-2.879 -5.22,-4.32 -9.27,-4.32 -1.68,0 -3.225,0.263 -4.635,0.788 -1.41,0.525 -2.633,1.267 -3.668,2.227 -1.035,0.96 -1.845,2.137 -2.43,3.533 -0.585,1.395 -0.877,2.977 -0.877,4.747 0,1.739 0.292,3.322 0.877,4.748 0.585,1.424 1.387,2.64 2.408,3.645 1.02,1.005 2.228,1.784 3.622,2.34 1.396,0.554 2.903,0.833 4.523,0.833 1.5,0 2.887,-0.249 4.162,-0.744 C 0.397,8.033 1.5,7.297 2.43,6.323 3.359,5.348 4.087,4.133 4.612,2.678 5.137,1.223 5.4,-0.479 5.4,-2.43" style="fill:#1a8ab9;fill-opacity:1;fill-rule:nonzero;stroke:none" id="path72" inkscape:connector-curvature="0"/></g><g id="g74" transform="translate(212.0405,61.388)"><path d="m 0,0 h 5.984 l 6.031,-15.705 h 0.089 L 17.46,0 h 5.625 L 12.87,-26.235 c -0.391,-0.991 -0.81,-1.868 -1.261,-2.633 C 11.16,-29.633 10.62,-30.277 9.99,-30.803 9.359,-31.327 8.617,-31.726 7.763,-31.995 6.907,-32.266 5.879,-32.4 4.68,-32.4 c -0.451,0 -0.908,0.022 -1.372,0.067 -0.466,0.045 -0.939,0.128 -1.418,0.247 l 0.45,4.681 c 0.36,-0.119 0.712,-0.202 1.057,-0.248 0.345,-0.045 0.667,-0.068 0.968,-0.068 0.57,0 1.049,0.068 1.44,0.203 0.389,0.135 0.719,0.345 0.99,0.63 0.269,0.285 0.51,0.638 0.72,1.058 0.21,0.42 0.434,0.915 0.674,1.484 l 1.081,2.745 z" style="fill:#1a8ab9;fill-opacity:1;fill-rule:nonzero;stroke:none" id="path76" inkscape:connector-curvature="0"/></g><path d="m 165.421,39.787 h 5.4 v 31.886 h -5.4 z" style="fill:#1a8ab9;fill-opacity:1;fill-rule:nonzero;stroke:none" id="path78" inkscape:connector-curvature="0"/><path d="m 177.481,39.787 h 5.4 v 31.886 h -5.4 z" style="fill:#1a8ab9;fill-opacity:1;fill-rule:nonzero;stroke:none" id="path80" inkscape:connector-curvature="0"/><g id="g82" transform="translate(231.6147,148.5281)"><path d="M 0,0 C -0.3,1.049 -0.772,1.98 -1.417,2.79 -2.063,3.6 -2.888,4.252 -3.893,4.747 -4.897,5.242 -6.105,5.49 -7.515,5.49 c -0.81,0 -1.56,-0.106 -2.25,-0.315 -0.69,-0.211 -1.304,-0.488 -1.844,-0.833 -0.54,-0.345 -1.013,-0.735 -1.418,-1.17 -0.406,-0.435 -0.713,-0.877 -0.923,-1.327 h -0.09 v 13.589 h -5.399 V -16.74 h 5.399 v 11.79 c 0,0.72 0.105,1.424 0.315,2.115 0.209,0.689 0.525,1.312 0.946,1.867 0.419,0.555 0.944,0.997 1.574,1.328 0.63,0.329 1.38,0.495 2.25,0.495 0.87,0 1.567,-0.18 2.093,-0.54 0.524,-0.36 0.929,-0.818 1.215,-1.373 0.285,-0.555 0.472,-1.17 0.562,-1.845 0.09,-0.675 0.135,-1.327 0.135,-1.957 v -11.88 h 5.4 v 13.5 C 0.45,-2.131 0.3,-1.051 0,0" style="fill:#1a8ab9;fill-opacity:1;fill-rule:nonzero;stroke:none" id="path84" inkscape:connector-curvature="0"/></g><g id="g86" transform="translate(168.2104,103.0676)"><path d="m 0,0 v 4.32 h -5.4 v 6.255 h -0.007 v 1.224 h -5.306 V 9.876 h 0.003 V 4.32 h -3.78 V 0 h 3.78 v -10.08 c 0,-1.05 0.097,-2.032 0.293,-2.947 0.194,-0.916 0.554,-1.726 1.08,-2.431 0.524,-0.705 1.237,-1.26 2.137,-1.664 0.9,-0.405 2.07,-0.608 3.51,-0.608 0.6,0 1.23,0.052 1.89,0.158 0.659,0.105 1.23,0.247 1.71,0.426 l -0.18,4.231 c -0.331,-0.15 -0.705,-0.263 -1.125,-0.338 -0.42,-0.075 -0.81,-0.112 -1.17,-0.112 -1.2,0 -1.973,0.315 -2.317,0.945 -0.346,0.63 -0.518,1.425 -0.518,2.385 L -5.4,0 Z" style="fill:#1e88b7;fill-opacity:1;fill-rule:nonzero;stroke:none" id="path88" inkscape:connector-curvature="0"/></g><g id="g90" transform="translate(433.7087,69.3275)"><path d="M 0,0 C -26.938,-11.42 -43.366,10.147 -63.392,38.73 -25.872,57.45 9.815,60.485 19.772,36.998 24.105,26.778 17.105,7.251 0,0 m -69.911,48.021 c -23.295,33.317 -61.134,58.228 -100.887,41.375 -3.695,-1.566 -7.357,-3.336 -10.978,-5.286 V 51.387 c 6.081,3.961 11.808,7.155 16.943,9.332 25.277,10.715 52.975,-9.36 70.905,-26.122 -25.96,-17.564 -57.726,-42.188 -87.848,-64.035 v -0.101 h 19.94 c 26.705,18.995 53.348,38.58 76.236,54.797 26.425,-26.316 48.097,-56.042 86.224,-39.879 26.773,11.35 35.399,37.466 27.038,57.19 -7.104,16.757 -42.273,31.56 -97.573,5.452" style="fill:#1a8ab9;fill-opacity:1;fill-rule:nonzero;stroke:none" id="path92" inkscape:connector-curvature="0"/></g></g></g></g></svg>
