<?xml version="1.0" encoding="utf-8"?>
<!-- Generator: Adobe Illustrator 19.2.1, SVG Export Plug-In . SVG Version: 6.00 Build 0)  -->
<svg version="1.1" id="Ebene_1" xmlns="http://www.w3.org/2000/svg" xmlns:xlink="http://www.w3.org/1999/xlink" x="0px" y="0px"
	 viewBox="0 0 1750 590" style="enable-background:new 0 0 1750 590;" xml:space="preserve">
<style type="text/css">
	.st0{fill:#3070B3;}
	.st1{fill:#FFFFFF;}
</style>
<g>
	<rect x="808" class="st0" width="942" height="590"/>
	<rect class="st0" width="751" height="590"/>
</g>
<g>
	<polygon class="st1" points="1279,100 1279,420 1199,420 1199,100 909,100 909,170 979,170 979,490 1049,490 1049,170 1129,170
		1129,490 1349,490 1349,170 1429,170 1429,490 1499,490 1499,170 1579,170 1579,490 1649,490 1649,100 	"/>
	<g>
		<g>
			<path class="st1" d="M130.6,110H101v-10h71.1v10h-29.6v79h-11.8V110z"/>
			<path class="st1" d="M222.1,168.5c-1.4,7.1-4.5,12.6-9.4,16.3c-4.8,3.7-10.9,5.6-18.2,5.6c-5.2,0-9.6-0.9-13.4-2.6
				c-3.8-1.7-7-4-9.5-7c-2.6-3-4.5-6.6-5.8-10.7c-1.3-4.2-2-8.7-2.2-13.6c0-4.8,0.7-9.3,2.2-13.4c1.5-4.1,3.6-7.7,6.3-10.7
				c2.7-3,5.9-5.3,9.6-7c3.7-1.7,7.7-2.5,12.1-2.5c5.7,0,10.5,1.2,14.3,3.6c3.8,2.4,6.8,5.4,9.1,9c2.3,3.7,3.9,7.6,4.7,12
				c0.9,4.3,1.2,8.4,1.1,12.3h-48.2c-0.1,2.8,0.2,5.5,1,8c0.7,2.5,2,4.8,3.6,6.7c1.7,2,3.8,3.5,6.4,4.7c2.6,1.2,5.6,1.7,9.1,1.7
				c4.4,0,8.1-1,11-3.1c2.9-2.1,4.8-5.2,5.7-9.5H222.1z M211.7,150.6c-0.2-2.5-0.7-4.9-1.7-7.1c-1-2.2-2.2-4.2-3.9-5.8
				c-1.6-1.6-3.6-2.9-5.8-3.9c-2.2-1-4.7-1.4-7.2-1.4c-2.7,0-5.2,0.5-7.4,1.4c-2.2,1-4.1,2.3-5.7,3.9c-1.6,1.7-2.8,3.6-3.7,5.8
				c-0.9,2.2-1.5,4.5-1.6,7H211.7z"/>
			<path class="st1" d="M278.3,145.2c-0.8-4.1-2.6-7.2-5.3-9.5c-2.7-2.2-6.2-3.4-10.7-3.4c-3.8,0-7,0.7-9.6,2.1
				c-2.6,1.4-4.6,3.3-6.2,5.6c-1.5,2.3-2.6,5-3.3,8c-0.7,3-1,6.2-1,9.4c0,3,0.4,5.9,1.1,8.7c0.7,2.8,1.8,5.3,3.3,7.5
				c1.5,2.2,3.4,4,5.8,5.3c2.4,1.3,5.3,2,8.7,2c5.1,0,9.2-1.4,12.2-4.2c3-2.8,4.8-6.6,5.5-11.5h10.8c-1.2,7.9-4.2,14-9,18.4
				c-4.8,4.4-11.3,6.6-19.4,6.6c-4.9,0-9.2-0.8-13-2.4c-3.8-1.6-6.9-3.9-9.5-6.8c-2.5-2.9-4.4-6.4-5.7-10.4c-1.3-4-1.9-8.4-1.9-13.3
				c0-4.8,0.6-9.3,1.9-13.5c1.2-4.2,3.1-7.8,5.7-11c2.5-3.1,5.7-5.6,9.5-7.3c3.8-1.8,8.2-2.7,13.4-2.7c3.7,0,7.1,0.4,10.3,1.3
				c3.2,0.9,6,2.2,8.5,4c2.5,1.8,4.5,4.1,6,6.9c1.5,2.8,2.5,6.1,2.9,9.9H278.3z"/>
			<path class="st1" d="M302.1,100h10.6v34h0.2c0.8-1.9,2-3.6,3.6-5c1.5-1.4,3.2-2.6,5-3.4c1.8-0.9,3.8-1.5,5.8-1.9
				c2-0.4,4-0.6,5.9-0.6c4.2,0,7.8,0.6,10.6,1.7c2.8,1.2,5.1,2.8,6.9,4.9c1.7,2.1,3,4.5,3.7,7.4c0.7,2.9,1.1,6,1.1,9.5v42.4h-10.6
				v-43.6c0-4-1.2-7.1-3.5-9.5c-2.3-2.3-5.5-3.5-9.6-3.5c-3.2,0-6,0.5-8.4,1.5c-2.4,1-4.3,2.4-5.9,4.2c-1.6,1.8-2.8,4-3.6,6.4
				c-0.8,2.5-1.2,5.1-1.2,8v36.4h-10.6V100z"/>
			<path class="st1" d="M371.9,124.5h10v10.2h0.2c2.2-4,5.1-6.9,8.7-8.8c3.5-1.9,7.6-2.9,12.3-2.9c4.2,0,7.8,0.6,10.6,1.7
				c2.8,1.2,5.1,2.8,6.9,4.9c1.7,2.1,3,4.5,3.7,7.4c0.7,2.9,1.1,6,1.1,9.5v42.4h-10.6v-43.6c0-4-1.2-7.1-3.5-9.5
				c-2.3-2.3-5.5-3.5-9.6-3.5c-3.2,0-6,0.5-8.4,1.5c-2.4,1-4.3,2.4-5.9,4.2c-1.6,1.8-2.8,4-3.6,6.4c-0.8,2.5-1.2,5.1-1.2,8v36.4
				h-10.6V124.5z"/>
			<path class="st1" d="M453,113h-10.6v-13H453V113z M442.4,124.5H453v64.4h-10.6V124.5z"/>
			<path class="st1" d="M513.8,145.2c-0.8-4.1-2.6-7.2-5.3-9.5c-2.7-2.2-6.2-3.4-10.7-3.4c-3.8,0-7,0.7-9.6,2.1
				c-2.6,1.4-4.6,3.3-6.2,5.6c-1.5,2.3-2.6,5-3.3,8c-0.7,3-1,6.2-1,9.4c0,3,0.4,5.9,1.1,8.7c0.7,2.8,1.8,5.3,3.3,7.5
				c1.5,2.2,3.4,4,5.8,5.3c2.4,1.3,5.3,2,8.7,2c5.1,0,9.2-1.4,12.2-4.2c3-2.8,4.8-6.6,5.5-11.5h10.8c-1.2,7.9-4.2,14-9,18.4
				c-4.8,4.4-11.3,6.6-19.4,6.6c-4.9,0-9.2-0.8-13-2.4c-3.8-1.6-6.9-3.9-9.5-6.8c-2.5-2.9-4.4-6.4-5.7-10.4c-1.3-4-1.9-8.4-1.9-13.3
				c0-4.8,0.6-9.3,1.9-13.5c1.2-4.2,3.1-7.8,5.7-11c2.5-3.1,5.7-5.6,9.5-7.3c3.8-1.8,8.2-2.7,13.4-2.7c3.7,0,7.1,0.4,10.3,1.3
				c3.2,0.9,6,2.2,8.5,4c2.5,1.8,4.5,4.1,6,6.9c1.5,2.8,2.5,6.1,2.9,9.9H513.8z"/>
			<path class="st1" d="M594.7,188.7c-1.9,1.2-4.4,1.7-7.6,1.7c-2.7,0-4.9-0.8-6.5-2.4c-1.6-1.6-2.4-4.1-2.4-7.6
				c-2.9,3.5-6.3,6-10.2,7.6c-3.9,1.6-8,2.4-12.5,2.4c-2.9,0-5.7-0.3-8.3-1c-2.6-0.7-4.9-1.7-6.8-3.2c-1.9-1.5-3.4-3.3-4.5-5.6
				c-1.1-2.3-1.7-5-1.7-8.3c0-3.7,0.6-6.6,1.9-9c1.2-2.3,2.9-4.2,4.9-5.6c2-1.4,4.4-2.5,7-3.3c2.6-0.8,5.3-1.4,8-1.9
				c2.9-0.6,5.7-1,8.3-1.3c2.6-0.3,4.9-0.7,6.9-1.2c2-0.5,3.6-1.3,4.7-2.4c1.2-1,1.7-2.6,1.7-4.5c0-2.3-0.4-4.2-1.3-5.6
				c-0.9-1.4-2-2.5-3.4-3.2c-1.4-0.7-2.9-1.2-4.6-1.5c-1.7-0.2-3.4-0.4-5-0.4c-4.5,0-8.2,0.9-11.2,2.6c-3,1.7-4.6,4.9-4.9,9.7h-10.6
				c0.2-4,1-7.4,2.5-10.1c1.5-2.7,3.5-5,6-6.7c2.5-1.7,5.4-2.9,8.6-3.7c3.2-0.7,6.6-1.1,10.2-1.1c2.9,0,5.8,0.2,8.7,0.6
				c2.9,0.4,5.5,1.3,7.8,2.6c2.3,1.3,4.2,3.1,5.6,5.4c1.4,2.3,2.1,5.4,2.1,9.1v33.1c0,2.5,0.1,4.3,0.4,5.5c0.3,1.2,1.3,1.7,2.9,1.7
				c1,0,2.1-0.2,3.2-0.6V188.7z M577.5,155.7c-1,0.7-2.2,1.3-3.7,1.7c-1.5,0.4-3.1,0.8-4.7,1.1c-1.7,0.3-3.4,0.5-5.3,0.7
				c-1.9,0.2-3.7,0.5-5.4,0.8c-1.7,0.3-3.4,0.7-5,1.2c-1.6,0.5-2.9,1.2-4.1,2.1c-1.2,0.9-2.1,2-2.8,3.3c-0.7,1.3-1.1,3-1.1,5
				c0,1.7,0.4,3.2,1.1,4.4c0.7,1.2,1.6,2.2,2.7,2.9c1.1,0.7,2.4,1.3,3.9,1.6c1.5,0.3,3.1,0.5,4.7,0.5c3.5,0,6.5-0.5,9-1.4
				c2.5-1,4.5-2.2,6.1-3.6c1.6-1.5,2.7-3,3.5-4.7c0.7-1.7,1.1-3.3,1.1-4.8V155.7z"/>
			<path class="st1" d="M605.8,100h10.6v88.9h-10.6V100z"/>
			<path class="st1" d="M179.5,307.1c0,11.3-3.1,19.8-9.2,25.6c-6.1,5.8-14.7,8.7-25.8,8.7c-5.7,0-10.9-0.7-15.4-2
				c-4.5-1.3-8.3-3.4-11.5-6.2c-3.1-2.8-5.5-6.4-7.2-10.7c-1.7-4.3-2.5-9.4-2.5-15.3v-56.8h11.8v56.8c0,7.9,2.1,13.9,6.4,18.1
				c4.3,4.2,10.4,6.2,18.2,6.2c7.6,0,13.3-2.1,17.3-6.2c3.9-4.2,5.9-10.2,5.9-18.1v-56.8h11.8V307.1z"/>
			<path class="st1" d="M195.4,274.8h10V285h0.3c2.2-4,5.1-6.9,8.7-8.8c3.5-1.9,7.6-2.9,12.3-2.9c4.2,0,7.8,0.6,10.6,1.7
				c2.8,1.2,5.1,2.8,6.9,4.9c1.7,2.1,3,4.5,3.7,7.4c0.7,2.9,1.1,6,1.1,9.5v42.4h-10.6v-43.6c0-4-1.2-7.1-3.5-9.5
				c-2.3-2.3-5.5-3.5-9.6-3.5c-3.2,0-6,0.5-8.4,1.5c-2.4,1-4.3,2.4-5.9,4.2c-1.6,1.8-2.8,4-3.6,6.4c-0.8,2.5-1.2,5.1-1.2,8v36.4
				h-10.6V274.8z"/>
			<path class="st1" d="M274.7,263.2h-10.6v-13h10.6V263.2z M264.1,274.8h10.6v64.4h-10.6V274.8z"/>
			<path class="st1" d="M320.1,339.2h-11.3l-23.9-64.4h11.8l18.1,53.7h0.2l17.6-53.7h11.1L320.1,339.2z"/>
			<path class="st1" d="M408.5,318.8c-1.4,7.1-4.5,12.6-9.4,16.3c-4.8,3.7-10.9,5.6-18.2,5.6c-5.2,0-9.6-0.9-13.4-2.6
				c-3.8-1.7-7-4-9.5-7c-2.6-3-4.5-6.6-5.8-10.7c-1.3-4.2-2-8.7-2.2-13.6c0-4.8,0.7-9.3,2.2-13.4c1.5-4.1,3.6-7.7,6.3-10.7
				c2.7-3,5.9-5.3,9.6-7c3.7-1.7,7.7-2.5,12.1-2.5c5.7,0,10.5,1.2,14.3,3.6c3.8,2.4,6.8,5.4,9.1,9c2.3,3.7,3.9,7.6,4.7,12
				c0.9,4.3,1.2,8.4,1.1,12.3h-48.2c-0.1,2.8,0.2,5.5,1,8c0.7,2.5,2,4.8,3.6,6.7c1.7,2,3.8,3.5,6.4,4.7c2.6,1.2,5.6,1.7,9.1,1.7
				c4.4,0,8.1-1,11-3.1c2.9-2.1,4.8-5.2,5.7-9.5H408.5z M398.1,300.9c-0.2-2.5-0.7-4.9-1.7-7.1c-1-2.2-2.2-4.2-3.9-5.8
				c-1.6-1.6-3.6-2.9-5.8-3.9c-2.2-1-4.7-1.4-7.2-1.4c-2.7,0-5.2,0.5-7.4,1.4c-2.2,1-4.1,2.3-5.7,3.9c-1.6,1.7-2.8,3.6-3.7,5.8
				c-0.9,2.2-1.5,4.5-1.6,7H398.1z"/>
			<path class="st1" d="M421.2,274.8h10v13.6h0.2c2.6-5.2,5.7-9.1,9.5-11.6c3.7-2.5,8.5-3.7,14.2-3.5v11.2c-4.2,0-7.8,0.6-10.8,1.7
				c-3,1.2-5.4,2.9-7.2,5.1c-1.8,2.2-3.2,5-4,8.2c-0.8,3.2-1.2,6.9-1.2,11v28.7h-10.6V274.8z"/>
			<path class="st1" d="M470.7,318.9c0.1,2.4,0.6,4.4,1.6,6c1,1.6,2.3,2.8,3.9,3.8c1.6,1,3.4,1.6,5.5,2.1c2,0.4,4.1,0.6,6.3,0.6
				c1.7,0,3.4-0.1,5.2-0.4c1.8-0.2,3.5-0.7,5-1.4c1.5-0.7,2.8-1.6,3.8-2.9c1-1.3,1.5-2.9,1.5-4.9c0-2.1-0.6-3.8-1.8-5
				c-1.2-1.3-2.8-2.3-4.7-3.2c-2-0.8-4.2-1.5-6.7-2.1c-2.5-0.5-5.1-1.1-7.8-1.7c-2.7-0.6-5.2-1.3-7.7-2.1c-2.5-0.8-4.7-1.9-6.7-3.2
				c-2-1.3-3.6-3-4.8-5.1c-1.2-2.1-1.8-4.6-1.8-7.7c0-3.2,0.7-6,2.2-8.3c1.5-2.3,3.3-4.2,5.6-5.7c2.3-1.5,4.9-2.5,7.7-3.2
				c2.9-0.7,5.7-1.1,8.5-1.1c3.6,0,6.9,0.3,10,0.9c3.1,0.6,5.9,1.7,8.2,3.2c2.4,1.5,4.3,3.6,5.7,6.2c1.4,2.6,2.2,5.9,2.5,9.8h-10.6
				c-0.2-2.1-0.7-3.8-1.7-5.2c-1-1.4-2.1-2.5-3.5-3.3c-1.4-0.8-2.9-1.4-4.6-1.8c-1.7-0.4-3.4-0.6-5.2-0.6c-1.6,0-3.2,0.1-4.8,0.4
				c-1.6,0.3-3.1,0.7-4.4,1.3c-1.3,0.6-2.4,1.5-3.2,2.6c-0.8,1.1-1.2,2.4-1.2,4c0,1.9,0.6,3.5,1.9,4.6c1.3,1.2,2.9,2.2,4.9,2.9
				c2,0.8,4.2,1.5,6.7,2c2.5,0.5,5,1.1,7.5,1.7c2.7,0.6,5.3,1.3,7.8,2.1c2.5,0.8,4.8,1.9,6.7,3.3c2,1.4,3.5,3.1,4.7,5.2
				c1.2,2.1,1.8,4.6,1.8,7.7c0,3.8-0.8,7-2.4,9.6c-1.6,2.6-3.7,4.7-6.4,6.3c-2.6,1.6-5.6,2.7-8.8,3.4c-3.3,0.7-6.5,1-9.8,1
				c-3.7,0-7.1-0.4-10.3-1.2c-3.2-0.8-6-2-8.5-3.7c-2.5-1.7-4.5-3.9-6-6.7c-1.5-2.8-2.3-6.2-2.5-10.2H470.7z"/>
			<path class="st1" d="M536.5,263.2h-10.6v-13h10.6V263.2z M525.9,274.8h10.6v64.4h-10.6V274.8z"/>
			<path class="st1" d="M566.4,274.8h12.8v9.3h-12.8v40c0,1.2,0.1,2.2,0.3,3c0.2,0.7,0.6,1.3,1.2,1.7c0.6,0.4,1.4,0.7,2.4,0.8
				c1,0.1,2.4,0.2,4,0.2h4.9v9.3h-8.1c-2.7,0-5.1-0.2-7-0.6c-2-0.4-3.5-1.1-4.7-2.1c-1.2-1-2.1-2.4-2.7-4.2
				c-0.6-1.8-0.9-4.2-0.9-7.2v-41h-11v-9.3h11v-19.3h10.6V274.8z"/>
			<path class="st1" d="M617.5,347.8c-1.2,3.2-2.5,5.8-3.7,8c-1.2,2.2-2.5,3.9-3.9,5.3c-1.4,1.4-3,2.4-4.9,3
				c-1.8,0.6-3.9,0.9-6.2,0.9c-1.2,0-2.5-0.1-3.7-0.2c-1.2-0.2-2.5-0.5-3.6-0.9v-9.7c1,0.3,2,0.7,3.1,1c1,0.3,2.1,0.5,3.2,0.5
				c2.2,0,3.9-0.5,5.2-1.5c1.3-1,2.5-2.5,3.5-4.4l4.4-11l-25.5-64h12l18.8,52.7h0.2l18.1-52.7h11.2L617.5,347.8z"/>
		</g>
		<g>
			<path class="st1" d="M109.1,457.4c0-4.7,0.7-9.2,2-13.3c1.3-4.1,3.3-7.7,6-10.7c2.7-3,5.9-5.4,9.8-7.2c3.9-1.7,8.4-2.6,13.5-2.6
				c5.1,0,9.5,0.9,13.5,2.6c3.9,1.7,7.2,4.1,9.8,7.2c2.7,3,4.7,6.6,6,10.7c1.3,4.1,2,8.5,2,13.3c0,4.7-0.7,9.1-2,13.2
				c-1.3,4.1-3.3,7.6-6,10.7c-2.7,3-5.9,5.4-9.8,7.2c-3.9,1.7-8.4,2.6-13.5,2.6c-5.1,0-9.7-0.9-13.5-2.6c-3.9-1.7-7.1-4.1-9.8-7.2
				c-2.7-3-4.7-6.6-6-10.7C109.8,466.5,109.1,462.1,109.1,457.4z M120.4,457.4c0,3.9,0.5,7.4,1.6,10.4c1,3,2.5,5.6,4.3,7.6
				c1.8,2,4,3.6,6.4,4.7c2.4,1.1,5,1.6,7.8,1.6c2.7,0,5.3-0.5,7.8-1.6c2.4-1.1,4.6-2.6,6.4-4.7c1.8-2,3.3-4.6,4.3-7.6
				c1-3,1.6-6.5,1.6-10.4c0-3.9-0.5-7.4-1.6-10.4c-1-3-2.5-5.6-4.3-7.7c-1.8-2.1-4-3.7-6.4-4.7c-2.5-1.1-5-1.6-7.8-1.6
				c-2.7,0-5.3,0.5-7.8,1.6c-2.5,1.1-4.6,2.7-6.4,4.7c-1.8,2.1-3.3,4.6-4.3,7.7C120.9,450,120.4,453.5,120.4,457.4z"/>
			<path class="st1" d="M187.3,434.4h-10.8v-9.3h10.8v-9.6c0-5.2,1.5-9.2,4.5-11.9c3-2.7,7.5-4,13.3-4c1,0,2.1,0.1,3.4,0.2
				c1.3,0.2,2.4,0.4,3.4,0.7v9.2c-0.9-0.3-1.9-0.6-3-0.7c-1.1-0.1-2.1-0.2-3-0.2c-2.6,0-4.6,0.5-6,1.5c-1.4,1-2.1,2.9-2.1,5.7v9
				h12.5v9.3h-12.5v55.1h-10.6V434.4z"/>
			<path class="st1" d="M253.9,400.6h16.2l28,74.7l28.2-74.7h16.2v88.9h-11.2v-74H331l-27.8,74h-10.1l-27.8-74h-0.2v74h-11.2V400.6z
				"/>
			<path class="st1" d="M412.5,489.5h-10v-10.2h-0.2c-2.2,4-5.1,6.9-8.7,8.8c-3.5,1.9-7.6,2.9-12.3,2.9c-4.2,0-7.8-0.6-10.6-1.7
				c-2.8-1.2-5.1-2.8-6.9-4.9c-1.7-2.1-3-4.5-3.7-7.4c-0.7-2.9-1.1-6-1.1-9.5v-42.4h10.6v43.6c0,4,1.2,7.1,3.5,9.5
				c2.3,2.3,5.5,3.5,9.6,3.5c3.2,0,6-0.5,8.4-1.5c2.4-1,4.3-2.4,5.9-4.2c1.6-1.8,2.8-4,3.6-6.4c0.8-2.4,1.2-5.1,1.2-8v-36.4h10.6
				V489.5z"/>
			<path class="st1" d="M427.2,425.1h10v10.2h0.3c2.2-4,5.1-6.9,8.7-8.8c3.5-1.9,7.6-2.9,12.3-2.9c4.2,0,7.8,0.6,10.6,1.7
				c2.8,1.2,5.1,2.8,6.9,4.9c1.7,2.1,3,4.5,3.7,7.4c0.7,2.9,1.1,6,1.1,9.5v42.4h-10.6v-43.6c0-4-1.2-7.1-3.5-9.5
				c-2.3-2.3-5.5-3.5-9.6-3.5c-3.2,0-6,0.5-8.4,1.5c-2.4,1-4.3,2.4-5.9,4.2c-1.6,1.8-2.8,4-3.6,6.4c-0.8,2.5-1.2,5.1-1.2,8v36.4
				h-10.6V425.1z"/>
			<path class="st1" d="M506.4,413.5h-10.6v-13h10.6V413.5z M495.8,425.1h10.6v64.4h-10.6V425.1z"/>
			<path class="st1" d="M565.3,445.8c-0.8-4.1-2.6-7.2-5.3-9.5c-2.7-2.2-6.2-3.4-10.7-3.4c-3.8,0-7,0.7-9.6,2.1
				c-2.6,1.4-4.6,3.3-6.2,5.6c-1.5,2.3-2.6,5-3.3,8c-0.7,3-1,6.2-1,9.4c0,3,0.4,5.9,1.1,8.7c0.7,2.8,1.8,5.3,3.3,7.5
				c1.5,2.2,3.4,4,5.8,5.3c2.4,1.3,5.3,2,8.7,2c5.1,0,9.2-1.4,12.2-4.2c3-2.8,4.8-6.6,5.5-11.5h10.8c-1.2,7.9-4.2,14-9,18.4
				c-4.8,4.4-11.3,6.6-19.4,6.6c-4.9,0-9.2-0.8-13-2.4c-3.8-1.6-6.9-3.9-9.5-6.8c-2.5-2.9-4.4-6.4-5.7-10.4c-1.3-4-1.9-8.4-1.9-13.3
				c0-4.8,0.6-9.3,1.9-13.5c1.2-4.2,3.1-7.8,5.7-11c2.5-3.1,5.7-5.6,9.5-7.3c3.8-1.8,8.2-2.7,13.4-2.7c3.7,0,7.1,0.4,10.3,1.3
				c3.2,0.9,6,2.2,8.5,4c2.5,1.8,4.5,4.1,6,6.9c1.5,2.8,2.5,6.1,2.9,9.9H565.3z"/>
			<path class="st1" d="M587.2,400.6h10.6v34h0.2c0.8-1.9,2-3.6,3.6-5c1.5-1.4,3.2-2.6,5-3.4c1.8-0.9,3.8-1.5,5.8-1.9
				c2-0.4,4-0.6,5.9-0.6c4.2,0,7.8,0.6,10.6,1.7c2.8,1.2,5.1,2.8,6.9,4.9c1.7,2.1,3,4.5,3.7,7.4c0.7,2.9,1.1,6,1.1,9.5v42.4H630
				v-43.6c0-4-1.2-7.1-3.5-9.5c-2.3-2.3-5.5-3.5-9.6-3.5c-3.2,0-6,0.5-8.4,1.5c-2.4,1-4.3,2.4-5.9,4.2c-1.6,1.8-2.8,4-3.6,6.4
				c-0.8,2.5-1.2,5.1-1.2,8v36.4h-10.6V400.6z"/>
		</g>
	</g>
</g>
</svg>
